<mxfile host="app.diagrams.net" modified="2020-11-11T15:48:40.125Z" agent="5.0 (X11; Linux x86_64) AppleWebKit/537.36 (KHTML, like Gecko) Chrome/85.0.4183.121 Safari/537.36" etag="K_jv_2U5pYB-XJ1CeEJb" version="13.9.2" type="github">
  <diagram id="rq2KtI0OxxO9I4jr_fS0" name="Page-1">
    <mxGraphModel dx="1022" dy="745" grid="1" gridSize="10" guides="1" tooltips="1" connect="1" arrows="1" fold="1" page="1" pageScale="1" pageWidth="850" pageHeight="1100" math="0" shadow="0">
      <root>
        <mxCell id="0" />
        <mxCell id="1" parent="0" />
        <mxCell id="eFZXbnbNbIuJFtgBjKQw-4" value="User&lt;br&gt;" style="shape=umlActor;verticalLabelPosition=bottom;verticalAlign=top;html=1;outlineConnect=0;" parent="1" vertex="1">
          <mxGeometry x="60" y="230" width="30" height="60" as="geometry" />
        </mxCell>
        <mxCell id="eFZXbnbNbIuJFtgBjKQw-5" value="Xem chi tiết sản phẩm" style="ellipse;whiteSpace=wrap;html=1;" parent="1" vertex="1">
          <mxGeometry x="500" y="190" width="120" height="40" as="geometry" />
        </mxCell>
        <mxCell id="eFZXbnbNbIuJFtgBjKQw-6" value="Xem trang sản phẩm" style="ellipse;whiteSpace=wrap;html=1;" parent="1" vertex="1">
          <mxGeometry x="350" y="150" width="120" height="40" as="geometry" />
        </mxCell>
        <mxCell id="eFZXbnbNbIuJFtgBjKQw-7" value="Xem trang tin tức, &lt;br&gt;bài báo về sản phẩm" style="ellipse;whiteSpace=wrap;html=1;" parent="1" vertex="1">
          <mxGeometry x="190" y="420" width="120" height="50" as="geometry" />
        </mxCell>
        <mxCell id="eFZXbnbNbIuJFtgBjKQw-8" value="Xem trang thông tin liên hệ nhà phân phối" style="ellipse;whiteSpace=wrap;html=1;" parent="1" vertex="1">
          <mxGeometry x="190" y="330" width="140" height="70" as="geometry" />
        </mxCell>
        <mxCell id="eFZXbnbNbIuJFtgBjKQw-9" value="Điền thông tin liên hệ" style="ellipse;whiteSpace=wrap;html=1;" parent="1" vertex="1">
          <mxGeometry x="420" y="240" width="120" height="50" as="geometry" />
        </mxCell>
        <mxCell id="eFZXbnbNbIuJFtgBjKQw-10" value="Xem mục hỗ trợ&amp;nbsp;&lt;br&gt;khách hàng" style="ellipse;whiteSpace=wrap;html=1;" parent="1" vertex="1">
          <mxGeometry x="200" y="230" width="120" height="60" as="geometry" />
        </mxCell>
        <mxCell id="eFZXbnbNbIuJFtgBjKQw-15" value="Xem thông tin khác" style="ellipse;whiteSpace=wrap;html=1;" parent="1" vertex="1">
          <mxGeometry x="210" y="490" width="120" height="40" as="geometry" />
        </mxCell>
        <mxCell id="eFZXbnbNbIuJFtgBjKQw-16" value="&amp;lt;&amp;lt;extend&amp;gt;&amp;gt;" style="endArrow=open;endSize=12;dashed=1;html=1;exitX=0;exitY=0.5;exitDx=0;exitDy=0;" parent="1" source="eFZXbnbNbIuJFtgBjKQw-9" target="eFZXbnbNbIuJFtgBjKQw-10" edge="1">
          <mxGeometry width="160" relative="1" as="geometry">
            <mxPoint x="160" y="469" as="sourcePoint" />
            <mxPoint x="460" y="450" as="targetPoint" />
          </mxGeometry>
        </mxCell>
        <mxCell id="eFZXbnbNbIuJFtgBjKQw-18" value="Xem trang giới thiệu công ty" style="ellipse;whiteSpace=wrap;html=1;" parent="1" vertex="1">
          <mxGeometry x="365" y="310" width="120" height="50" as="geometry" />
        </mxCell>
        <mxCell id="eFZXbnbNbIuJFtgBjKQw-19" value="&amp;lt;&amp;lt;extend&amp;gt;&amp;gt;" style="endArrow=open;endSize=12;dashed=1;html=1;exitX=0.058;exitY=0.3;exitDx=0;exitDy=0;exitPerimeter=0;entryX=1;entryY=0.5;entryDx=0;entryDy=0;" parent="1" source="eFZXbnbNbIuJFtgBjKQw-5" target="eFZXbnbNbIuJFtgBjKQw-6" edge="1">
          <mxGeometry width="160" relative="1" as="geometry">
            <mxPoint x="520" y="182.5" as="sourcePoint" />
            <mxPoint x="490" y="275" as="targetPoint" />
          </mxGeometry>
        </mxCell>
        <mxCell id="eFZXbnbNbIuJFtgBjKQw-20" value="" style="endArrow=open;endFill=1;endSize=12;html=1;entryX=0;entryY=0.5;entryDx=0;entryDy=0;exitX=0.946;exitY=0.729;exitDx=0;exitDy=0;exitPerimeter=0;" parent="1" source="eFZXbnbNbIuJFtgBjKQw-39" target="eFZXbnbNbIuJFtgBjKQw-5" edge="1">
          <mxGeometry width="160" relative="1" as="geometry">
            <mxPoint x="220" y="210" as="sourcePoint" />
            <mxPoint x="180" y="90" as="targetPoint" />
          </mxGeometry>
        </mxCell>
        <mxCell id="eFZXbnbNbIuJFtgBjKQw-21" value="" style="endArrow=open;endFill=1;endSize=12;html=1;entryX=0;entryY=0.5;entryDx=0;entryDy=0;exitX=0.962;exitY=0.314;exitDx=0;exitDy=0;exitPerimeter=0;" parent="1" source="eFZXbnbNbIuJFtgBjKQw-39" target="eFZXbnbNbIuJFtgBjKQw-6" edge="1">
          <mxGeometry width="160" relative="1" as="geometry">
            <mxPoint x="220" y="180" as="sourcePoint" />
            <mxPoint x="165" y="30" as="targetPoint" />
          </mxGeometry>
        </mxCell>
        <mxCell id="eFZXbnbNbIuJFtgBjKQw-22" value="" style="endArrow=open;endFill=1;endSize=12;html=1;entryX=0;entryY=0.5;entryDx=0;entryDy=0;" parent="1" target="eFZXbnbNbIuJFtgBjKQw-18" edge="1">
          <mxGeometry width="160" relative="1" as="geometry">
            <mxPoint x="110" y="290" as="sourcePoint" />
            <mxPoint x="220" y="170" as="targetPoint" />
          </mxGeometry>
        </mxCell>
        <mxCell id="eFZXbnbNbIuJFtgBjKQw-23" value="" style="endArrow=open;endFill=1;endSize=12;html=1;entryX=0;entryY=0.5;entryDx=0;entryDy=0;" parent="1" source="eFZXbnbNbIuJFtgBjKQw-4" target="eFZXbnbNbIuJFtgBjKQw-10" edge="1">
          <mxGeometry width="160" relative="1" as="geometry">
            <mxPoint x="100" y="290" as="sourcePoint" />
            <mxPoint x="220" y="225" as="targetPoint" />
          </mxGeometry>
        </mxCell>
        <mxCell id="eFZXbnbNbIuJFtgBjKQw-24" value="" style="endArrow=open;endFill=1;endSize=12;html=1;entryX=0;entryY=0.5;entryDx=0;entryDy=0;" parent="1" target="eFZXbnbNbIuJFtgBjKQw-8" edge="1">
          <mxGeometry width="160" relative="1" as="geometry">
            <mxPoint x="100" y="310" as="sourcePoint" />
            <mxPoint x="190" y="295" as="targetPoint" />
          </mxGeometry>
        </mxCell>
        <mxCell id="eFZXbnbNbIuJFtgBjKQw-25" value="" style="endArrow=open;endFill=1;endSize=12;html=1;entryX=0;entryY=0.5;entryDx=0;entryDy=0;" parent="1" target="eFZXbnbNbIuJFtgBjKQw-7" edge="1">
          <mxGeometry width="160" relative="1" as="geometry">
            <mxPoint x="90" y="320" as="sourcePoint" />
            <mxPoint x="195" y="375" as="targetPoint" />
          </mxGeometry>
        </mxCell>
        <mxCell id="eFZXbnbNbIuJFtgBjKQw-26" value="" style="endArrow=open;endFill=1;endSize=12;html=1;entryX=0;entryY=0.5;entryDx=0;entryDy=0;" parent="1" target="eFZXbnbNbIuJFtgBjKQw-15" edge="1">
          <mxGeometry width="160" relative="1" as="geometry">
            <mxPoint x="80" y="320" as="sourcePoint" />
            <mxPoint x="200" y="455" as="targetPoint" />
          </mxGeometry>
        </mxCell>
        <mxCell id="eFZXbnbNbIuJFtgBjKQw-27" value="Đăng xuất" style="ellipse;whiteSpace=wrap;html=1;" parent="1" vertex="1">
          <mxGeometry x="230" y="50" width="120" height="40" as="geometry" />
        </mxCell>
        <mxCell id="eFZXbnbNbIuJFtgBjKQw-28" value="" style="endArrow=none;html=1;entryX=0;entryY=0.5;entryDx=0;entryDy=0;" parent="1" target="eFZXbnbNbIuJFtgBjKQw-27" edge="1">
          <mxGeometry width="50" height="50" relative="1" as="geometry">
            <mxPoint x="90" y="220" as="sourcePoint" />
            <mxPoint x="120" y="170" as="targetPoint" />
            <Array as="points">
              <mxPoint x="170" y="90" />
            </Array>
          </mxGeometry>
        </mxCell>
        <mxCell id="eFZXbnbNbIuJFtgBjKQw-29" value="Tìm kiếm sản phẩm" style="ellipse;whiteSpace=wrap;html=1;" parent="1" vertex="1">
          <mxGeometry x="460" y="60" width="120" height="40" as="geometry" />
        </mxCell>
        <mxCell id="eFZXbnbNbIuJFtgBjKQw-30" value="" style="endArrow=open;endFill=1;endSize=12;html=1;entryX=0;entryY=0.5;entryDx=0;entryDy=0;exitX=1;exitY=0;exitDx=0;exitDy=0;" parent="1" source="eFZXbnbNbIuJFtgBjKQw-39" target="eFZXbnbNbIuJFtgBjKQw-29" edge="1">
          <mxGeometry width="160" relative="1" as="geometry">
            <mxPoint x="200" y="170" as="sourcePoint" />
            <mxPoint x="200" y="200" as="targetPoint" />
          </mxGeometry>
        </mxCell>
        <mxCell id="eFZXbnbNbIuJFtgBjKQw-31" value="&amp;lt;&amp;lt;extend&amp;gt;&amp;gt;" style="endArrow=open;endSize=12;dashed=1;html=1;exitX=0;exitY=1;exitDx=0;exitDy=0;entryX=1;entryY=0;entryDx=0;entryDy=0;" parent="1" source="eFZXbnbNbIuJFtgBjKQw-29" target="eFZXbnbNbIuJFtgBjKQw-6" edge="1">
          <mxGeometry width="160" relative="1" as="geometry">
            <mxPoint x="386.96000000000004" y="212" as="sourcePoint" />
            <mxPoint x="320" y="200" as="targetPoint" />
          </mxGeometry>
        </mxCell>
        <mxCell id="eFZXbnbNbIuJFtgBjKQw-32" value="&amp;lt;&amp;lt;extend&amp;gt;&amp;gt;" style="endArrow=open;endSize=12;dashed=1;html=1;entryX=0.5;entryY=1;entryDx=0;entryDy=0;" parent="1" source="eFZXbnbNbIuJFtgBjKQw-5" target="eFZXbnbNbIuJFtgBjKQw-29" edge="1">
          <mxGeometry width="160" relative="1" as="geometry">
            <mxPoint x="386.96000000000004" y="212" as="sourcePoint" />
            <mxPoint x="320" y="200" as="targetPoint" />
          </mxGeometry>
        </mxCell>
        <mxCell id="eFZXbnbNbIuJFtgBjKQw-39" value="Xem sản phẩm" style="ellipse;whiteSpace=wrap;html=1;" parent="1" vertex="1">
          <mxGeometry x="180" y="160" width="130" height="50" as="geometry" />
        </mxCell>
        <mxCell id="eFZXbnbNbIuJFtgBjKQw-40" value="" style="endArrow=open;endFill=1;endSize=12;html=1;entryX=0;entryY=0.5;entryDx=0;entryDy=0;" parent="1" target="eFZXbnbNbIuJFtgBjKQw-39" edge="1">
          <mxGeometry width="160" relative="1" as="geometry">
            <mxPoint x="100" y="254.21052631578948" as="sourcePoint" />
            <mxPoint x="180" y="170" as="targetPoint" />
          </mxGeometry>
        </mxCell>
      </root>
    </mxGraphModel>
  </diagram>
</mxfile>
